<?xml version="1.0" encoding="utf-8"?>
<!-- Generator: Adobe Illustrator 19.2.1, SVG Export Plug-In . SVG Version: 6.00 Build 0)  -->
<svg version="1.1" id="Capa_1" xmlns="http://www.w3.org/2000/svg" xmlns:xlink="http://www.w3.org/1999/xlink" x="0px" y="0px"
	 viewBox="0 0 1363 1336" style="enable-background:new 0 0 1363 1336;" xml:space="preserve">
<style type="text/css">
	.st0{fill:#EFCA80;}
</style>
<g>
	<path class="st0" d="38.10108952748109,645.493243468343
38.75785147047298,641.5478671410427
39.45489240758841,637.6105568960852
40.1916523978507,633.6886084088881
40.973957131643125,629.756655077987
41.797506116368076,625.841685123495
42.66282236486004,621.9442156690347
43.57643924232932,618.0397067408962
44.53333879729105,614.1542747807974
45.53403579796432,610.2884119648952
46.58240885313951,606.4305024873674
47.67583952662808,602.5934032864469
48.82565966810799,598.7421309242491
50.0148081579815,594.9367861790925
51.258462816723295,591.1308329840983
52.54989823571066,587.3483365731984
53.893699509133356,583.5784693591538
55.28649868153164,579.833175653202
56.73311638909381,576.1018866778926
58.22993115355057,572.3962411161687
59.78658537892625,568.6952375371009
61.385443296846645,565.0422753474967
63.04555515587582,561.3952287384127
64.75820189301588,557.7758134196115
66.51875430154989,554.19448887551
68.33768612947327,550.6311615043448
70.2104791673553,547.0964029672868
72.13756358067269,543.5904994545177
74.11379759126521,540.1233142407225
76.15060855223643,536.6757910560777
78.24296386900407,533.2579004239668
80.37940818698132,529.8882554495897
82.57776632187965,526.539104647373
84.82027998919165,523.2378361694653
87.1254852793914,519.9574607833922
89.47489131611218,516.7245631039084
91.88121203458631,513.5214499748348
94.33152098386782,510.3651175058912
96.83899706092322,507.23836061570046
99.39023275299023,504.1576573828446
101.98487567836776,501.1223904702677
104.63679389342035,498.1160702091837
107.31742154853418,495.17005863897504
110.05507197851402,492.2522230981907
112.83516668012598,489.3778086246457
115.66490918433314,486.53871351793606
118.53660112581831,483.74200780145645
121.4420993475471,480.9943120420444
124.38860767563304,478.28752483754164
127.35977198177861,475.6350969784835
130.3870129446499,473.0080357361585
133.43777191944352,470.43366847953666
136.5360065874217,467.89056843626906
139.65642256738113,465.398312321828
142.82360947712294,462.9360887466289
146.01165962319627,460.52289035828505
149.22834092009936,458.15119148996973
152.4818290474136,455.8138547845733
155.74503134218222,453.5287711644795
159.06179792710626,451.26416169973015
162.37771980761474,449.05589890554575
165.74653459272406,446.8669340672025
169.11270480579066,444.73212643122065
172.51233629931994,442.62694576244894
175.94510420848562,440.55082293060923
179.3915529668331,438.5143627405166
182.85082779053045,436.51654299143115
186.3318269179175,434.55092366140303
189.8339785145697,432.616738631964
193.356716661473,430.7132314913629
196.88948820702873,428.84488441828506
200.44156761001187,427.0055983152693
204.0124097056687,425.19465050399305
207.59123905806115,423.41636263736376
211.17728586606881,421.66984695311186
214.80096868978274,419.93949218408517
218.40988750434354,418.24925152164576
222.04502257989813,416.57874190521443
225.70609490190543,414.92747452956974
229.35005875110608,413.3137282859546
233.018821558339,411.7178323311782
236.70127927856356,410.14390529201404
240.38604692520366,408.5958716575733
244.08341576255486,407.06848605967144
247.79291882660922,405.5611523160393
251.50298609168064,404.0776891361461
255.22413732800834,402.6130260784507
258.9671630111785,401.16227328286396
262.6865995961243,399.7421260475465
266.4382684711132,398.3304585821215
270.18783041192364,396.9395848168468
273.9461625665775,395.564691018546
277.70129533897267,394.20939591129655
281.4758512404651,392.8648720164645
285.2587270629632,391.53455808236924
289.02124114176877,390.23155010047543
292.81811710114266,388.93820059657986
296.60859544996504,387.66742642236045
300.41214979290703,386.4115753831016
304.2078715934625,385.17645014164066
308.0153892814162,383.9545780110213
311.83413369341287,382.74520516203484
315.643030243344,381.55395228600594
319.47218935165427,380.3704187218607
323.2902146612305,379.20333983843904
327.127382366918,378.0424966664054
330.95215784651487,376.896479215948
334.7845967408448,375.7582920405088
338.6241479538601,374.6272052401501
342.470260389513,373.50248891493396
346.30154549678264,372.3894483651282
350.1590990626921,371.27525870823246
354.0006731395539,370.1712438543232
357.8465629747667,369.07065047560815
361.69622636075604,367.97276044450007
365.5281736858451,366.8828075628888
369.3837444011791,365.7881648986906
373.24146499134656,364.69407510220634
377.079815268027,363.6057688212032
380.92971351284905,362.5136148601304
384.7801365660638,361.4198738985985
388.62005555183646,360.32682390144265
392.46991705511493,359.2277812451663
396.31869143396614,358.1250166617334
400.1553608871534,357.0208414214381
404.0108276207691,355.9054725566784
407.8426485408312,354.7903239389185
411.6817059823948,353.665567627698
415.5169887679024,352.53352988426394
419.35839132745116,351.3903804967736
423.174079173131,350.2447609440351
427.0052140568587,349.0834359150453
430.830389276045,347.9119230629047
434.6490626231156,346.72950426002643
438.481387031116,345.5289389449195
442.28538730001185,344.32248481856004
446.10186264249603,343.09630163348504
449.88900919978295,341.86292404061624
453.68744299204803,340.60821914611563
457.4964573072808,339.3312133300137
461.27454142116073,338.0449046463151
465.06198191176225,336.7346485748523
468.8377677987064,335.4066118577592
472.6013390008593,334.06005269478777
476.35213543708704,332.6942292856902
480.10965385484326,331.3008937252576
483.8531244912883,329.88658259218795
487.581978183067,328.4505420572725
491.29564576682424,326.9920182913027
495.0132896369836,325.5022697924329
498.71443093640664,323.988269056575
502.4082660656459,322.44512292150915
506.0843463342127,320.87605319393583
509.75176610399205,319.27601877414423
513.4001630099058,317.6483685609931
517.0480961601195,315.98348524201225
520.6756137597715,314.28911589768524
524.2821188108098,312.56446983309985
527.8670143151824,310.8087563533439
531.4483944678678,309.0116908154451
535.0067272335574,307.1816276910474
538.5414061382147,305.3177637347583
542.0518247078037,303.4192957011848
545.5555589264618,301.4752007556057
549.0335492191758,299.4945108314929
552.4851795361794,297.47641000086406
555.9098338277059,295.4200823357369
559.3245157698602,293.3136948894457
562.6932213311633,291.17825603814947
566.0504181677322,288.9906964584057
569.3778608279302,286.76120442552497
572.6579197281972,284.5008361554705
575.9241391219308,282.1852209766877
579.1587304040997,279.82519140865685
582.3610678489383,277.4199187080053
585.5141894803008,274.981395557588
588.6503172883677,272.48339550584643
591.7363338129973,269.95098509065434
594.8037620328416,267.3569598681117
597.8123871031036,264.73429348590685
600.7855726908805,262.06220382718465
603.7150862579966,259.3470553222095
606.6154993202834,256.57932825875383
609.4781697200457,253.7947313143136
612.3213328691854,250.97956437844263
615.145576206438,248.13441324207423
617.9372119657113,245.27466571510308
620.7115207505351,242.38631845259033
623.455179338774,239.4849311185219
626.1831825976844,236.55638817905825
628.8825504118277,233.61640468795562
631.5680144383492,230.65077019700718
634.2403470936639,227.66021121410412
636.8870508569596,224.66065112008297
639.5093297864038,221.6529858104668
642.1214576044367,218.62286776362166
644.7243123582957,215.57110362438547
647.3059504852355,212.513825808125
649.8676128998269,209.4519576338615
652.4232101672739,206.37108708154025
654.9611444421096,203.2874499663423
657.4951813728433,200.18662993984768
660.0139298243654,197.08491363764298
662.5310352833361,193.96789931575714
665.0352893202914,190.8519060555147
667.5402423927459,187.72256593135825
670.0348443980329,184.59621181730182
672.5204122046227,181.47382354687727
675.0103921666977,178.34111316628184
677.4939152822719,175.21439138231983
679.9843972882154,172.07945301336878
682.4710646796726,168.95257478238747
684.967328916935,165.8196543927497
687.4624864165671,162.69691503997893
689.96997108832,159.57037771195175
692.4791233128868,156.45619224924596
694.9913389503956,153.35539726018908
697.5201262836381,150.25422958398664
700.0669762398904,147.15395959166332
702.6090548466498,144.08517152970597
705.1843475487019,141.00501003301767
707.7577419287218,137.95846818105926
710.3551978884309,134.9176112109941
712.9783512115479,131.8838188171387
715.616398953642,128.8726513737667
718.2708190638223,125.8852085686056
720.9430894911973,122.92259008938272
723.6474325459764,119.97210646270793
726.372785601537,117.04890731553787
729.1336038291672,114.1405861004052
731.9186630414757,111.26206308393122
734.7162864778788,108.42770220773387
737.5675851149629,105.59893606897423
740.4344883235593,102.8165942814987
743.3317132116697,100.0685751146968
746.2745443097632,97.34341913173735
749.2371325437553,94.66761213507058
752.2346100820032,92.02952636112838
755.282761991235,89.41823993960571
758.35475946889,86.85917942121851
761.4662138755433,84.34123872760684
764.6038167517352,81.87701760268006
767.7835136241231,79.45576878498069
771.0068034549978,77.07860759737419
774.2597330094513,74.75749017825716
777.5588100293671,72.48225195529308
780.8896120299521,70.26439127999875
784.2529150692033,68.10432302102272
787.6494572429744,66.00243457123811
791.0965550748397,63.94938092724516
794.5618899936024,61.96514506475155
798.0624608286864,60.04009371796515
801.5988585943472,58.17450792358723
805.1716387629465,56.368643043361956
808.7813217419282,54.622729118977134
812.4102008905843,52.945188332046385
816.057890571212,51.33542401766504
819.7426983676355,49.78509978691268
823.4649812234428,48.29432867679389
827.2057345057347,46.87036907160523
830.9643684856795,45.51248169527135
834.7402414050423,44.2198916403971
838.5556925723848,42.9784228467323
842.3735498590572,41.793698672777694
846.2128288808887,40.660667278343944
850.0597215107363,39.58439833888011
853.9267304406471,38.5623839353279
857.8131185511763,37.59610969785803
861.7052371748182,36.68995026026137
865.6153538008883,35.842025552161125
869.5299317281413,35.05624266234845
873.4737628528815,34.328902180809976
877.4205951160811,33.66611974923295
881.3698229735808,33.06863840731785
885.333297254054,32.53561569963513
889.2977764155105,32.06977812385012
893.2872489081549,31.669564940875418
897.2761295112548,31.33879745511804
901.2637548396978,31.07813760663084
905.2615255622469,30.887763491682797
909.2565203456729,30.769209043606846
913.259950855999,30.723054300146398
917.2590317990245,30.750354845499515
921.2530413979664,30.85168057661504
925.2528992300818,31.028206816679226
929.2460338579685,31.28027286383508
933.2316874193232,31.60838796900644
937.2090909281203,32.01304125995121
941.1774641577872,32.49470133980181
945.1360155237007,33.05381588328496
949.0839419650099,33.690811230620966
953.0204288257839,34.40609197910235
956.9446497354829,35.200040572351966
960.8557664887558,36.07301688726052
964.7314964246661,37.01989266566484
968.592810701087,38.045633840645316
972.4388426794783,39.15053878628714
976.2687134975158,40.33488197329175
980.0609135363484,41.59184712085407
983.8355771845206,42.927941602654755
987.5715978459223,44.33553166242782
991.288681130779,45.82187777976255
994.9760167917169,47.38284654650555
998.6232178459147,49.01352948429121
1002.2396638195951,50.71761169638448
1005.8342919837569,52.49950619939486
1009.3778105059147,54.34419015854955
1012.8889257461533,56.260545245846224
1016.3670055549094,58.248091701091106
1019.793205122053,60.29521537348141
1023.1945386725702,62.41757508809647
1026.5345260988252,64.5915763893252
1029.8485913729994,66.83944721540902
1033.1184582323156,69.14870173286472
1036.3438275337219,71.51831197738647
1039.5244001341664,73.94724998466846
1042.659876890597,76.43448779040483
1045.7499586599617,78.97899743028975
1048.7782741546291,81.56577016377156
1051.7769139571378,84.22144859681626
1054.7292629346111,86.93132043898727
1057.6196895556216,89.67952188190284
1060.4788096553955,92.49442204179032
1063.275911354497,95.34505901149319
1066.0260326464631,98.24525698736835
1068.728879136455,101.19400432169674
1071.3841564296333,104.19028936675932
1073.9915701311597,107.23310047483706
1076.5372685834113,110.30479163179949
1079.0350330335505,113.42051621572105
1081.4976125044486,116.59637583288423
1083.8919898714512,119.78874372480857
1086.2378253999113,123.0219354821274
1088.540956870219,126.30383872677236
1090.7827214726215,129.60684060091046
1092.9753481046287,132.94750001705995
1095.1185517165607,136.32483744086642
1097.2120472587376,139.7378733379754
1099.2555496814796,143.18562817403253
1101.2381354118177,146.64821458286423
1103.1810705275866,150.16229424645456
1105.0630686010938,153.68890900917683
1106.8944877034346,157.24600296712993
1108.6655083854105,160.81304190464255
1110.3952068809,164.42805047809924
1112.073486572839,168.07065227732056
1113.6913671254897,171.7198718544102
1115.2578329393843,175.3944841492368
1116.7726081101137,179.09354105392026
1118.235416733268,182.8160944605803
1119.6459829044377,186.56119626133665
1121.0040307192132,190.32789834830913
1122.3092842731849,194.11525261361743
1123.5581189482416,197.91188316601819
1124.7570017923995,201.72941918591823
1125.9065058065614,205.56653094517142
1127.000164026955,209.40623097588104
1128.0414467556745,213.26250910470952
1129.0329303161361,217.14916321605685
1129.9663755022925,221.03713550037946
1130.8445999575129,224.94024909500598
1131.663816333676,228.8438850791049
1132.4290380939733,232.7758199937224
1133.136269872451,236.72136216180434
1133.7824284126432,240.66601573849857
1134.369248189464,244.623305087474
1134.8958441343625,248.59267561431045
1135.3583319231086,252.54597245140303
1135.7623161246688,256.5379099128892
1136.1013702511684,260.51284097671305
1136.378495541078,264.51137456675815
1136.5909688577956,268.5056072678155
1136.7386384574056,272.49510256238864
1136.8216980563204,276.50627489018643
1136.838847145125,280.49819621059373
1136.7900799224835,284.49719827208173
1136.6746252135329,288.5026153508006
1136.4931458400927,292.48744787952654
1136.2434216162728,296.4906946545598
1135.927501301041,300.4723864277344
1135.543243958288,304.45813567137566
1135.0930910298207,308.4214748115573
1134.5722728319915,312.400512149641
1133.985469158507,316.35611179121787
1133.3310761108094,320.30062329280946
1132.609072824398,324.23351676948465
1131.8194482371996,328.1542558179021
1130.9622011846195,332.0622974699416
1130.0403787191085,335.94476876191914
1129.0481272405561,339.8258436572848
1127.9917528096864,343.6803981250766
1126.864607804556,347.5322594962099
1125.6776713831568,351.3446455663463
1124.4241063995464,355.1412914691924
1123.103974877898,358.92161472885766
1121.7217791492124,362.6733105514828
1120.2781785168,366.3960573121954
1118.769021646217,370.1010653207273
1117.1994032512257,373.77629418050543
1115.5596183840985,377.4441059189636
1113.8707060368956,381.0586113052674
1112.1122293797307,384.6646625822221
1110.3067018368383,388.21713772969525
1108.432228888386,391.76011361250676
1106.50667878987,395.26010523466016
1104.5249911653366,398.72783731182153
1102.4814055609909,402.17363225848266
1100.3826861731127,405.58630581124453
1098.236281557954,408.9550848331494
1096.0364307299717,412.2902914192434
1093.7767061885115,415.6018289906466
1091.4718170167098,418.8688004274766
1089.1154990705895,422.10121527083686
1086.7160009279855,425.28883916052075
1084.251263983031,428.46106432815
1081.752575079685,431.5781578978073
1079.2054456631377,434.65960816462905
1076.6105412565012,437.7050904695658
1073.9685273828873,440.714280153568
1071.2970152834482,443.6683883639249
1068.5630630935834,446.604250724247
1065.801501765427,449.4848486734087
1062.9871479353287,452.337210671641
1060.1383012898827,455.14313412650444
1057.2468612090947,457.91130053297445
1054.3227703371224,460.6328661018824
1051.3482315630363,463.3246838186624
1048.3521456575559,465.9612250912111
1045.3165740455058,468.5592272629873
1042.2421576035454,471.11837769810603
1039.1295372083339,473.6383637606823
1035.9793537365306,476.1188728148311
1032.8125343833235,478.54427040644225
1029.609887505754,480.93007368899197
1026.3720418887908,483.2759759252285
1023.0996263174028,485.5816703779002
1019.7932695765585,487.84685030975527
1016.4642885521108,490.064190157781
1013.1028297826816,492.2406645257619
1009.7204073865789,494.3692134143391
1006.3069501092541,496.4565547359898
1002.8630747970426,498.50238757743034
999.4117590522785,500.49369850349467
995.9090833240188,502.4558825408109
992.4005620283351,504.36348673131874
988.8644394690135,506.22892843339525
985.3013207058386,508.05191248353503
981.7118107985951,509.8321437182327
978.119920652963,511.558257937254
974.4796041559455,513.252378629726
970.8384297729929,514.8923551178443
967.1735850825515,516.4889669508967
963.4856635089627,518.0419246414423
959.7752584765678,519.5509387020397
956.0672684300137,521.0063513826468
952.3138131285159,522.4268997626393
948.5642238575981,523.7938497289088
944.7947775359864,525.1162856594407
940.9936436989439,526.3980252080453
937.1986414968036,527.6264798748307
933.3634123708401,528.8185972426127
929.5452757902564,529.991097037456
925.72202132664,531.1641717592963
921.8941469950984,532.338452000642
918.0829871219127,533.5081703218982
914.2473854486669,534.6867382695227
910.4295254707337,535.8619685173034
906.609060816285,537.0408794642283
902.7864814246666,538.2240914771817
898.9622772352238,539.4122249230483
895.1369381873025,540.6059001687129
891.3318621037865,541.7991632272004
887.5057226725111,543.0057444243603
883.7008197854896,544.2130701301159
879.896727510546,545.4283249507348
876.083482770633,546.6554935338388
872.2720236403245,547.8918637640552
868.473268639273,549.1346227551112
864.6772547038341,550.3877552236971
860.8844637853705,551.6518714222213
857.0953778352446,552.9275816030912
853.3104788048192,554.2154960187152
849.5302486454568,555.5162249215009
845.7551693085203,556.8303785638562
841.9650279501811,558.1659048343711
838.2017310408918,559.5088208671947
834.4450334562001,560.8669957498473
830.6954171474688,562.2410397347363
826.9328251170897,563.6392499610113
823.1988627499627,565.0469584922665
819.4529852033337,566.4802521980082
815.736615190149,567.9240797158255
812.0094011902253,569.3949248271649
808.2922781005426,570.8855259369199
804.5857358604466,572.3965034119756
800.9003457987262,573.9242627289663
797.2063536863966,575.4820689255265
793.5344936311338,577.0578976977913
789.8751741828397,578.6565843028947
786.2189410408475,580.2832139809893
782.5763037138398,581.934075796014
778.9378888161868,583.6143957353315
775.3239654303641,585.31566851212
771.7251211041552,587.0430515274002
768.1321078467223,588.8019869563043
764.555250612483,590.5884345791335
760.9757448971945,592.4129649350898
757.4327883330036,594.2564868232332
753.9074845439329,596.1294161099597
750.3813214313936,598.0428088215413
746.892919950746,599.976613082923
743.4048665960987,601.9524865515775
739.9460239184585,603.9551731839687
736.5074405155643,605.9906059908619
733.080384746678,608.0650731955998
729.6747091978991,610.1737444289058
726.3091510631755,612.3055792346684
722.9476320903759,614.4843877762773
719.6090091389658,616.6993196716273
716.3116446882846,618.9387445485935
713.0202017218974,621.2276420278615
709.7619670381232,623.5482413134309
706.5285144855966,625.9073136668885
703.3290057541802,628.2989422781393
700.15514239904,630.7300986123039
697.0074224352836,633.2014132618904
693.8863438780186,635.7135168194072
690.8091453864781,638.2530489602852
687.7509869970829,640.8412817693107
684.7372438492773,643.4575062452175
681.7435206823079,646.1236721230409
678.7947250837055,648.8183641320702
675.8749024748802,651.5566447854042
672.9845348071942,654.3391243354508
670.1397380168694,657.1507549471692
667.3404914937794,659.9913973680398
664.5714625884759,662.8770535213255
661.8331175377746,665.8083137614924
659.1408756469467,668.7690983389384
656.4946753205702,671.7592173554265
653.8798409752703,674.7956549680548
651.3112451046331,677.8615279760807
648.7887940579105,680.9566071427812
646.3053525412239,684.0896416550964
643.8680166473375,687.2516495665186
641.4698147349131,690.4516245324357
639.104138460312,693.6990930522842
636.7980331973165,696.9564342826288
634.5310898575779,700.2515435090087
632.3098921508229,703.5747014338425
630.1301372804678,706.9328705791152
628.0078015991024,710.3155059665721
625.9291268151354,713.7458586173369
623.9146294710005,717.1841823400903
621.9398895263671,720.6662544250489
620.0140340358134,724.1710319917388
618.124600109551,727.7162004476181
616.2905610775123,731.2602936545472
614.4893285829456,734.8410966708586
612.7342922861405,738.4266063304214
611.0087759572431,742.0454948138646
609.3257277143535,745.6652516541916
607.6737300362151,749.3047059522573
606.0512469061312,752.962299197541
604.4567654874626,756.6364959792616
602.8977989369376,760.3043872147346
601.3592034631451,763.9963731969842
599.8397184216315,767.711203000182
598.3467644400706,771.42584230879
596.8788040139542,775.1386981779334
595.4258391621851,778.8702250080665
593.9950805888816,782.5971134097792
592.5767429657088,786.3400735279683
591.173778141046,790.0867800826913
589.7849067963792,793.8359304632451
588.4088709163884,797.5862432962709
587.0362835512013,801.3589457326199
585.67820547367,805.1191511871043
584.3293355053482,808.8768428663474
582.984455153978,812.6421299041405
581.6424208831676,816.4138775799007
580.3020891565246,820.1909511730453
578.9663400818549,823.9608556700271
577.630013397429,827.7338017007105
576.3000436826086,831.48592109618
574.9591825094246,835.2615752014118
573.6143507578768,839.0369040289844
572.268490029906,842.7994192456842
570.9164331025095,846.5593789790844
569.5529378175866,850.3270104514606
568.1809457205235,854.0898253062741
566.8035006508502,857.8353931748245
565.4111492552905,861.5852241795019
564.0026559048055,865.3381248799076
562.585343907494,869.07042797904
561.1495345628678,872.8034853478608
559.698333095263,876.5249057540016
558.2261622965684,880.2446711848636
556.7317136824689,883.9615161031966
555.2182051321038,887.6631283344963
553.6798626349596,891.3593275717683
552.1200002931391,895.0378751824502
550.5279531059437,898.7193309390307
548.9165630423013,902.3697570830324
547.2701788014833,906.0203701069117
545.5970841925322,909.6482474037286
543.8859520500423,913.2733806235015
542.1504934539203,916.8625613075187
540.3740343330492,920.446124763953
538.5547832219117,924.0223606315195
536.7017760986132,927.5689814362893
534.8137523187002,931.0847362524332
532.8781549058854,934.5885315114633
530.9045743761499,938.0585624465272
528.8799763843895,941.5133073186066
526.8143521286846,944.9313136982115
524.6941569247282,948.3305992219365
522.5298145914702,951.6900952278476
520.3072366147467,955.0273257580388
518.0373118874695,958.3216378586832
515.7186897519966,961.5716912846976
513.3364156275056,964.7942200804363
510.9021492821784,967.9692670946304
508.41451690474196,971.0954691070624
505.8721446839231,974.1714628975155
503.25881607940255,977.2128232835141
500.5949276328075,980.1923249303948
497.87183318138113,983.1172098755837
495.08021898265713,985.9941043236711
492.2424843173908,988.7976304385008
489.3251736930732,991.5580865084355
486.36815465329425,994.2355872586029
483.3457491007502,996.8522920098684
480.2654415369484,999.3997014060999
477.1174122450974,1001.8839744711067
473.9187872040974,1004.2902067642115
470.6694206447396,1006.6181847724879
467.3692052423953,1008.8677335247398
464.01807147039784,1011.0387159498671
460.5958827349356,1013.1430719078753
457.1424325150626,1015.1562653011451
453.6380710914044,1017.0906974666143
450.10424918276976,1018.9355318388158
446.5205641328356,1020.7024686651539
442.887172603453,1022.3915980740019
439.2269392192363,1023.99342327863
435.5181512587568,1025.5062704254756
431.76901016235337,1026.906620025635
427.99163056125093,1028.1942202001085
424.16238635252927,1029.3807935358632
420.3119802074587,1030.4603216214139
416.4442319600438,1031.4362722408614
412.5338669148145,1032.3182095687537
408.6126014112298,1033.1020264232588
404.6690336282986,1033.79347238218
400.72099664801084,1034.3927470339133
396.75649893252256,1034.9048685376529
392.7781440237188,1035.3320739130982
388.788456594129,1035.6765696565856
384.7898838031338,1035.940532050212
380.8006365710055,1036.1255254986095
376.8074477053392,1036.2348376901502
372.79641080565284,1036.2705431212385
368.8017510351931,1036.2344073369911
364.80955132627355,1036.1287376487603
360.80533682183324,1035.9546718268434
356.8072842747733,1035.7144722270668
352.81726881576645,1035.4100843758051
348.83709979456745,1035.0434262593503
344.86852203189596,1034.6163886092568
340.8962721493351,1034.1286277696922
336.93875658190495,1033.583666046436
332.9804517600594,1032.9805954821386
329.03983291834584,1032.323427693546
325.1011399921626,1031.6107020961326
321.1656089573475,1030.8434186945103
317.25179235821327,1030.026308283727
313.34362503602415,1029.1571057242309
309.4596847780131,1028.2410065565196
305.5837253524131,1027.2752202838974
301.7168187426799,1026.2606875754527
297.86001082519743,1025.1983400130052
294.0143216574717,1024.0891001567945
290.18074576502084,1022.9338816108723
286.3602524269604,1021.7335890881951
282.55378596028606,1020.4891184754234
278.7799058260691,1019.2074594635776
275.0042339907206,1017.8775105455197
271.2452710450277,1016.506016929625
267.50386432979377,1015.093839852054
263.7808376252883,1013.6418320421363
260.05935902044973,1012.1436286378756
256.37548380793623,1010.6142682820301
252.69472242187163,1009.0399474649355
249.03545057480594,1007.4287003107146
245.38083125397858,1005.7732794048706
241.76670675455117,1004.090412527475
238.15867308102597,1002.364565440294
234.55749021475816,1000.5959113677949
230.9813430578342,998.7935188932414
227.43086482535867,996.958175353639
223.90666750953403,995.0906601119854
220.39205344910778,993.1822435755718
216.88774990355873,991.2330915104856
213.41166410004627,989.2532704312663
209.96434499227433,987.2435390591518
206.5292626998889,985.194356020679
203.1071231980962,983.1058822305584
199.7155551821691,980.988960284937
196.3381959518568,978.8334554103784
192.99251504766923,976.650591096677
189.662274859854,974.4298418213173
186.36477288723455,972.182806939313
183.08390991373162,969.8985753023736
179.82036077317727,967.5773007270769
176.59114569497424,965.2311393745421
173.3641527661905,962.8364255176444
170.18879644686086,960.4298703245464
167.0169915982113,957.9750656226337
163.88159666084385,955.4970831244566
160.76711512815857,952.9837020323813
157.68206368138377,950.4416178770514
154.61911992238373,947.8646120081056
151.58667927886307,945.2595564601204
148.5775242817621,942.6200518351593
145.60754625937102,939.9600441470752
142.64676875157417,937.2522569392485
139.72619619208427,934.5246076917139
136.83121663008347,931.7634420023533
133.96246482106275,928.9689045525869
131.13515447580977,926.155801078353
128.32061907321304,923.2951243088899
125.54850213373206,920.4165088286071
122.80484969226445,917.5054360385775
120.09028673900465,914.5620483943931
117.41927174343436,911.6019884333916
114.76460392709792,908.594564038782
112.15441080008146,905.5710810922765
109.57547420866773,902.5161797648382
107.02840947842685,899.4300003091764
104.5138319349289,896.3126829780003
102.04519443744502,893.180845558687
99.59726003633986,890.0018335867412
97.19613645509227,886.8089004459007
94.82959192109769,883.5857066741534
92.4982321954526,880.3323903441537
90.20266303925345,877.0490895285566
87.95522251517453,873.753366104413
85.73285647546857,870.4106657170796
83.5594346830581,867.0561269769094
81.42382113261715,863.6724619948155
79.33754849202235,860.2778436820729
77.27913348578439,856.836485471591
75.27083316141488,853.3847465576764
73.30229807780366,849.9047237249152
71.37411516546533,846.3965507538603
69.48687135491454,842.8603614250645
67.6508089762734,839.3152201814664
65.85641202689476,835.7426223021091
64.10425817014183,832.1426994552603
62.39492506937786,828.5155833091874
60.73773591920128,824.8809140059891
59.124053225227044,821.2195997741957
57.562720883522346,817.5515614943531
56.03751633787244,813.8374868961439
54.565313868159706,810.1172267850761
53.14594701192695,806.3913266298892
51.77193106249882,802.639979837649
50.44381646808287,798.8633118734036
49.162153676886646,795.0614482022017
47.934039647655254,791.2552675852728
46.75925348091296,787.445296810153
45.62851101503912,783.6005291904163
44.55139383818082,779.7526139909153
43.52489359133469,775.8914256222691
42.54651846467364,772.0065740888281
41.6217670744822,768.1197176576218
40.745647277779064,764.2096930341359
39.92310753744787,760.2984105272462
39.149680351396086,756.3644468943821
38.42975588821077,752.4299605396125
37.763006203860556,748.4954381684486
37.1457629083796,744.5390730451834
36.58156251818582,740.5833862712577
36.067280715787895,736.606321865235
35.60587791012802,732.63063869031
35.19697461973701,728.6568022950814
34.84018016913101,724.6852725400502
34.533474214190576,720.6935048333678
34.27864163490961,716.7047177923259
34.07422634114605,712.6961305436814
33.92216124779214,708.7145276083854
33.82022894476868,704.7137789508419
33.76894018681394,700.7057651091262
33.768209315641435,696.7025866855314
33.81734831191134,692.7165590700461
33.91654253953311,688.7124313676002
34.06516325793388,684.7142918952741
34.26271591457954,680.7225517436663
34.50951787797641,676.7255152101491
34.80453771615482,672.7355817297853
35.14837922448209,668.7409444511816
35.538417013240164,664.7663537489184
35.975086612705056,660.8000436181201
36.4594231154857,656.8300425609195
36.9913316538989,652.8565814516352
37.5688247092854,648.8923405243404
#
"/>
</g>
</svg>
