<?xml version="1.0" encoding="utf-8"?>
<!-- Generator: Adobe Illustrator 19.2.1, SVG Export Plug-In . SVG Version: 6.00 Build 0)  -->
<svg version="1.1" id="Capa_1" xmlns="http://www.w3.org/2000/svg" xmlns:xlink="http://www.w3.org/1999/xlink" x="0px" y="0px"
	 viewBox="0 0 2357.5 2501.5" style="enable-background:new 0 0 2357.5 2501.5;" xml:space="preserve">
<style type="text/css">
	.st0{fill:#EFCA80;}
	.st1{fill:#262448;}
	.st2{fill:#315556;}
	.st3{fill:#CB534E;}
	.st4{fill:#FFFFFF;stroke:#33AF25;stroke-width:4;stroke-miterlimit:10;}
	.st5{fill:none;stroke:#AD2D2D;stroke-width:11;stroke-miterlimit:10;}
	.st6{fill:#C73B41;}
</style>
<g>
	<path class="st0" d="M101.1,1635.5c23.8-147.6,119.1-209.1,246.4-253.7c109-38.2,236.9-54.4,319.9-133.1
		c82.7-78.5,121.7-178.2,230.4-214.4c145.8-48.5,253.2,41,289.3,155.1c50,158.1-52.9,287.2-189.6,329.2
		c-113.2,34.8-234,69.3-303.8,177.7c-64.3,99.9-67.8,266-192.1,318.1C360.5,2073.4,57.1,1908.4,101.1,1635.5z"/>
	<path class="st1" d="M1954.1,2006.2c-68.2,90.7-205,70.7-307.2,112.6c-117.7,48.3-210.3,125.1-326.9,187.6
		c-113.2,60.6-311.8-23.3-186.3-222.4c49.4-78.4,97.1-135.4,128.1-227.5c34.5-102.5,55.9-194.5,153.3-245.7
		C1661.2,1481.6,2141.1,1757.8,1954.1,2006.2z"/>
	<path class="st2" d="M720.4,2022.5c54.7-49.6-2.6-103.7-73.1-45.9c-48.1,39.5-75.4,100-116.6,143.5c-37.9,40.1-81.6,20.1-128,34.8
		c-99.2,31.5,73.2,168.1,157.7,128.2c59.2-28,54.5-111,70.9-159C648.9,2073.1,683.6,2055.9,720.4,2022.5z"/>
	<path class="st3" d="M1960.1,1353.2c7.5-48.4,48.1-72.9,51.6-123.7c7.7-110.5-105.3-164.6-152.2-78.3
		c-23.9,43.9-31.2,97.6-60.3,138.1c-29.5,41-76.6,48.8-114,79.1c-68.8,55.7-85,153.6-169.6,197.1c-195,100.2-181.6,217.5-35.5,216.6
		c122.2-0.7,147.9-165.1,304.6-169.9C2039.5,1604.3,1943.7,1458.4,1960.1,1353.2z"/>
	<g>
		<path class="st4" d="M972.2,2386.4c-1.1,0.1-2.3,0.1-3.4,0.1c-75.1,2.2-122.8-17.3-131-53.5c-6.5-28.7,12.8-65.7,54.2-104.2
			c45.9-42.7,117.1-85.9,206-125.2c75.3-33.2,127.6-89.1,178.3-143.1c39.1-41.7,79.6-84.9,130.3-117.3c25-16,51-27.5,76.2-38.8
			c39.9-17.7,77.5-34.5,111.5-67.1c31.5-30.2,55.2-66.5,78.1-101.5c17.4-26.6,35.4-54.1,56.8-79c53.2-62,114.8-67.7,152.2-45.9
			c33.3,19.4,59.1,67.2,31.7,143c-12.6,34.8-37.1,60.9-60.9,86.2c-21.3,22.6-43.3,46-56.6,75.5l-0.7-0.3l0.7,0.3
			c-15,33.1-21.7,69.6-28.2,105c-10.1,54.8-20.6,111.5-62.2,154.8c-46.5,48.4-128.3,75-249.9,81.3c-115.7,6-195.9,67.2-273.4,126.4
			C1114.6,2334.4,1051.2,2382.8,972.2,2386.4z M1831.9,1501.1c-31.7,1.4-68.3,18-101.7,56.8c-21.3,24.8-39.3,52.2-56.6,78.8
			c-23,35.1-46.8,71.4-78.3,101.8c-34.2,32.8-71.9,49.6-111.9,67.4c-25.1,11.2-51.1,22.7-76,38.6c-50.6,32.3-91,75.4-130,117
			c-50.7,54.1-103.2,110.1-178.8,143.4c-88.7,39.1-159.8,82.3-205.5,124.9c-41,38.1-60.1,74.6-53.7,102.7
			c8,35.4,55.2,54.4,129.4,52.3c1.1,0,2.3-0.1,3.4-0.1c78.5-3.6,141.7-51.8,208.6-102.9c77.7-59.3,158.1-120.7,274.3-126.7
			c121.2-6.2,202.6-32.7,248.8-80.8c41.3-43,51.7-99.4,61.8-154c6.5-35.4,13.3-72,28.4-105.3c13.5-29.8,35.6-53.3,56.9-76
			c23.7-25.1,48.1-51.1,60.6-85.7c27-74.9,1.7-122.1-31-141.1C1867,1504.5,1850.3,1500.3,1831.9,1501.1z"/>
	</g>
	<g>
		<path class="st5" d="M404.4,2058c-2.1,0.1-4.1,0.2-6.1,0.2c-41.8,0.5-76.8-14.3-96.2-40.7c-28.4-38.6-22.3-104.4,55.2-164.3
			l0.5,0.6l-0.5-0.6c25.8-19.9,51-37.4,75.3-54.2c81.2-56.2,151.3-104.7,197.7-212.4c15.4-35.6,26.9-78.7,39.1-124.3
			c32.7-122.1,69.8-260.5,196.4-308.6c122.9-46.6,292.7,33.8,398.4,128.2c81.1,72.4,121.4,147.3,107.9,200.2
			c-8.7,34.2-38.9,57.5-89.6,69.3c-49,11.4-95.9,9.9-141.3,8.4c-78.9-2.6-153.5-5-226.8,61.3c-52.8,47.7-100.3,105.6-146.3,161.6
			c-64.1,78.1-130.4,158.8-214.2,217.2C502.5,2036,451,2055.9,404.4,2058z M933.3,1142c-23.3,1.1-45.7,5.3-66.8,13.3
			C740.6,1203,703.6,1341,671,1462.8c-12.2,45.7-23.8,88.8-39.2,124.6c-46.6,108-116.9,156.7-198.3,213
			c-24.4,16.9-49.5,34.3-75.3,54.2c-76.6,59.2-82.8,124.1-54.9,162.1c37.7,51.4,135.6,61.8,249.8-17.8
			c83.6-58.3,149.8-138.9,213.9-217c46-56,93.6-114,146.5-161.8c73.8-66.8,148.7-64.3,228-61.7c45.3,1.5,92.1,3,140.9-8.4
			c50.1-11.7,79.9-34.6,88.4-68.2c13.2-51.6-28-127.7-107.4-198.7C1176,1205.2,1045.1,1136.9,933.3,1142z"/>
	</g>
</g>
<path class="st6" d="M839.2,987.2c74.8,226.9,864.6,423.9,1292.4,179.3c339.7-194.2,41.6-400.3-23.4-597.6
	c-65-197.2,52.1-540.2-336.5-494.4C1282.3,132.3,764.4,760.3,839.2,987.2z"/>
</svg>
