<?xml version="1.0" encoding="utf-8"?>
<!-- Generator: Adobe Illustrator 19.2.1, SVG Export Plug-In . SVG Version: 6.00 Build 0)  -->
<svg version="1.1" id="Capa_1" xmlns="http://www.w3.org/2000/svg" xmlns:xlink="http://www.w3.org/1999/xlink" x="0px" y="0px"
	 viewBox="0 0 318 126" style="enable-background:new 0 0 318 126;" xml:space="preserve">
<style type="text/css">
	.st0{fill:#FFFFFF;}
</style>
<path class="st0" d="M47.9,118.7c0,0,39.4-17.7,39.4-39.4v-4.9V30.1H59.3h-23H8.5v44.3v4.9C8.5,101,47.9,118.7,47.9,118.7z
	 M15.2,74.4V40v-3.1h3.1h59.1h3.1V40v34.3V78c0,18.1-30.1,31.8-31.4,32.4l-1.3,0.6l-1.3-0.6c-1.3-0.6-31.4-14.3-31.4-32.4V74.4z
	 M33.4,16.6l-24.8,0V9.9l24.8,0V16.6z M33.5,26.7l-24.9,0V20l24.9,0V26.7z M60.4,26.7l-24.9,0V20l24.9,0V26.7z M87.3,16.6l-24.8,0
	V9.9l24.8,0V16.6z M87.4,26.7l-24.9,0V20l24.9,0V26.7z M47.9,107.6c0,0,29.6-13.2,29.6-29.6v-3.7V40H18.3v34.3V78
	C18.3,94.4,47.9,107.6,47.9,107.6z M23.8,62.4c0.7-2.8-1.2-7.4,4.2-7.1c3.5,0.2,7.2,2.4,10,5c0.9-1.7,2.3-2.9,3.9-3.5
	c-1.5-3.1-2.5-6.9-1.9-10c1.1-5.4,5.1-2.3,8-2.3c2.9,0,6.9-3.1,8,2.3c0.6,3-0.3,6.7-1.7,9.7c1.7,0.5,3.1,1.7,4.2,3.3
	c2.7-2.4,6.2-4.4,9.5-4.5c5.5-0.3,3.5,4.3,4.2,7.1c0.7,2.8,4.7,5.9-0.2,8.3c-3.5,1.7-8.5,1.4-12.3,0.2c-0.3,1.3-0.7,2.6-1.2,3.8
	c3.8,1.5,8.1,4.6,9.8,8.3c2.2,5-2.8,4.8-5.2,6.5c-2.3,1.7-3.9,6.5-7.8,2.7c-3.1-2.9-4.5-8.3-4.5-12.5h-0.3h-3.1h-1.8
	c0,4.2-1.5,9.6-4.5,12.5c-4,3.8-5.5-1-7.8-2.7c-2.3-1.7-7.4-1.5-5.2-6.5c1.7-3.9,6.4-7.1,10.4-8.5c-0.5-1.2-0.9-2.5-1.2-3.8
	c-3.9,1.4-9.3,1.9-13,0.1C19.1,68.3,23,65.2,23.8,62.4z M40.1,75.3c-1.4-2.5-2.2-6-2.2-8.7c0-5.1,2.3-8.8,6.6-8.8
	c0.1-1.3,1.8-2.4,3.8-2.4c2,0,3.6,1,3.8,2.2c4,0.1,6.6,3.9,6.6,9c0,2.7-0.8,6.2-2.2,8.7c0,0,0,0,0,0c-0.2,0.4,0,1.5,0.3,2.2
	c0.1,0.4-0.2,0.7-0.7,0.7h-4.1c0.9-1.5,3-8.3,3-11.7c0-4.4-1.7-5.5-3.4-5.5c-1.7,0-2.2,1.6-2.2,3.2c0,2.3,0.9,7.8,0.9,13.9h-3.8
	c0-5.3,0.9-11.6,0.9-13.9c0-1.6-0.4-3.2-2.2-3.2s-3.4,1.1-3.4,5.5c0,3.3,2.1,10.2,3,11.7h-4.2c-0.5,0-0.9-0.4-0.7-0.7
	C40.2,76.8,40.4,75.7,40.1,75.3L40.1,75.3z M47.6,51.4h-2.1V50h2.1v-1.8H49V50h2.1v1.4H49v3.2h-1.4V51.4z M126.6,35.3h3.5v4.8h-3.4
	c-0.6,0-1.2-0.1-1.8-0.3c-0.6-0.2-1.1-0.5-1.6-0.8c-0.5-0.3-1-0.7-1.4-1.1c-0.4-0.4-0.8-0.8-1-1.2l-5.5-7.8h-3.1v6.9
	c0,0.5-0.1,1.1-0.4,1.6c-0.3,0.5-0.6,1-1,1.4c-0.4,0.4-0.9,0.8-1.4,1.1c-0.5,0.3-1,0.4-1.6,0.4h-5.2v-4.8h2.2c0.3,0,0.6-0.1,1-0.4
	c0.3-0.3,0.5-0.6,0.5-0.9V18.2c0-0.5-0.2-0.9-0.6-1.4c-0.4-0.5-0.8-0.7-1.3-0.7h-1.8v-5h15.5c1.9,0,3.5,0.3,4.7,0.9s2.1,1.4,2.8,2.2
	c0.7,0.9,1.1,1.8,1.3,2.7c0.2,0.9,0.3,1.7,0.3,2.3c0,0.8-0.1,1.7-0.2,2.5c-0.1,0.9-0.4,1.7-0.8,2.5c-0.4,0.8-1,1.5-1.8,2.2
	c-0.8,0.6-1.8,1.1-3.1,1.4L126.6,35.3z M116.6,23.9c1.6,0,2.8-0.3,3.5-0.9c0.8-0.6,1.2-1.6,1.2-3.1c0-0.4-0.1-0.8-0.2-1.2
	c-0.1-0.4-0.3-0.9-0.6-1.2c-0.3-0.4-0.7-0.7-1.3-0.9c-0.6-0.3-1.3-0.4-2.2-0.4h-4.7v7.8H116.6z M151.6,33.9
	c-0.4,1.3-0.9,2.4-1.6,3.3c-0.7,0.9-1.5,1.6-2.3,2.1c-0.9,0.5-1.8,0.9-2.7,1.2c-1,0.2-1.9,0.3-2.8,0.3c-1.5,0-2.9-0.2-4.2-0.6
	c-1.3-0.4-2.4-1-3.4-2c-1-0.9-1.7-2.1-2.3-3.6c-0.6-1.5-0.8-3.4-0.8-5.6c0-0.4,0-1,0.1-1.7c0.1-0.7,0.2-1.5,0.5-2.3
	c0.2-0.8,0.6-1.6,1-2.4c0.5-0.8,1.1-1.6,1.8-2.2c0.8-0.7,1.7-1.2,2.8-1.6c1.1-0.4,2.5-0.6,4-0.6c1,0,2.2,0.2,3.4,0.5
	c1.2,0.3,2.3,0.9,3.3,1.8c1,0.9,1.8,2.1,2.5,3.6c0.7,1.5,1,3.5,1,6v1H137c0,0.4,0.1,0.9,0.2,1.5c0.1,0.6,0.3,1.2,0.7,1.7
	c0.3,0.6,0.8,1,1.5,1.4c0.7,0.4,1.6,0.6,2.7,0.6c0.8,0,1.5-0.2,2.2-0.6c0.7-0.4,1.2-1,1.4-1.8H151.6z M146,27.3
	c-0.1-0.9-0.3-1.6-0.6-2.2c-0.3-0.6-0.6-1-1.1-1.4c-0.4-0.3-0.8-0.6-1.3-0.7c-0.5-0.1-1-0.2-1.4-0.2c-1.3,0-2.4,0.4-3.1,1.2
	c-0.7,0.8-1.2,1.9-1.3,3.3H146z M155.1,24.6c0-0.3-0.1-0.5-0.3-0.7c-0.2-0.2-0.5-0.3-0.7-0.3h-1.4v-4.8h4.6c0.6,0,1.1,0.1,1.5,0.3
	c0.4,0.2,0.8,0.5,1.1,0.8c0.3,0.3,0.5,0.7,0.6,1.1c0.1,0.4,0.2,0.8,0.2,1.3v11.4c0,0.2,0.1,0.4,0.3,0.7c0.2,0.2,0.5,0.3,0.7,0.3h1.4
	v5.7h-4.6c-0.4,0-0.9-0.1-1.3-0.4c-0.4-0.3-0.8-0.6-1.1-1.1c-0.3-0.4-0.6-0.9-0.8-1.4c-0.2-0.5-0.3-1-0.3-1.5V24.6z M153.4,12.7
	c0-1,0.3-1.8,1-2.5s1.5-1,2.4-1c1,0,1.8,0.3,2.5,1c0.7,0.7,1,1.5,1,2.5c0,0.9-0.3,1.8-1,2.4c-0.7,0.7-1.5,1-2.5,1
	c-0.9,0-1.8-0.3-2.4-1S153.4,13.7,153.4,12.7z M166.9,24.7c0-0.3-0.1-0.5-0.3-0.8c-0.2-0.3-0.5-0.4-0.7-0.4h-1.3v-4.8h5.3
	c0.3,0,0.6,0.1,0.9,0.3c0.3,0.2,0.6,0.4,0.8,0.7c0.2,0.3,0.4,0.6,0.6,0.9c0.1,0.3,0.2,0.6,0.2,1v0.7c0.2-0.3,0.4-0.7,0.7-1.2
	c0.3-0.5,0.7-0.9,1.3-1.4c0.5-0.4,1.2-0.8,1.9-1.1c0.7-0.3,1.6-0.4,2.6-0.4c1.1,0,2,0.2,3,0.5c0.9,0.3,1.7,0.8,2.4,1.4
	c0.7,0.6,1.2,1.4,1.6,2.2c0.4,0.9,0.6,1.9,0.6,3.1v8.8c0,0.3,0.1,0.5,0.3,0.8c0.2,0.3,0.5,0.4,0.7,0.4h1.4v4.8h-4.6
	c-0.5,0-0.9-0.1-1.3-0.4c-0.4-0.3-0.8-0.6-1.1-1c-0.3-0.4-0.6-0.8-0.8-1.3c-0.2-0.5-0.3-1-0.3-1.4v-9c0-0.4,0-0.8-0.1-1.3
	c0-0.5-0.2-0.9-0.4-1.4c-0.2-0.4-0.6-0.8-1.1-1.1c-0.5-0.3-1.2-0.4-2.1-0.4c-1.3,0-2.3,0.4-3.2,1.3c-0.8,0.8-1.3,2.1-1.3,3.7v8.3
	c0,0.5-0.1,0.9-0.3,1.4c-0.2,0.5-0.5,0.9-0.8,1.3c-0.3,0.4-0.7,0.7-1.2,1c-0.4,0.3-0.9,0.4-1.3,0.4h-4.5v-4.8h1.3
	c0.3,0,0.5-0.1,0.7-0.4c0.2-0.2,0.3-0.5,0.3-0.8V24.7z M212.2,34.3c0,0.2,0.1,0.5,0.3,0.7c0.2,0.2,0.4,0.3,0.7,0.3h1.5v4.8h-4.8
	c-0.3,0-0.6-0.1-0.9-0.2s-0.6-0.3-0.9-0.6c-0.3-0.2-0.5-0.5-0.7-0.9c-0.2-0.3-0.3-0.7-0.3-1.1v-0.6c-0.6,1.2-1.6,2.2-2.8,2.8
	c-1.2,0.7-2.5,1-4,1c-1.5,0-2.8-0.2-4-0.7c-1.2-0.4-2.3-1.1-3.3-2.1c-0.9-0.9-1.7-2.1-2.2-3.5c-0.5-1.4-0.8-3.1-0.8-5
	c0-1.9,0.3-3.6,0.9-5s1.4-2.6,2.4-3.5c1-0.9,2.2-1.6,3.5-2.1c1.3-0.5,2.7-0.7,4.2-0.7c0.5,0,1.1,0.1,1.7,0.2
	c0.6,0.1,1.2,0.3,1.7,0.6c0.5,0.2,1,0.5,1.5,0.9c0.5,0.3,0.9,0.7,1.2,1.1v-1.9h5.2V34.3z M206.2,29.4c0-0.7-0.1-1.4-0.2-2.2
	c-0.1-0.8-0.4-1.5-0.7-2.1c-0.4-0.6-0.9-1.2-1.6-1.6c-0.7-0.4-1.6-0.6-2.6-0.6c-1.1,0-2,0.2-2.7,0.6c-0.7,0.4-1.2,1-1.6,1.6
	c-0.4,0.6-0.6,1.4-0.7,2.1c-0.1,0.8-0.2,1.5-0.2,2.2c0,0.7,0.1,1.4,0.2,2.2c0.1,0.8,0.4,1.5,0.7,2.1c0.4,0.6,0.9,1.2,1.6,1.6
	c0.7,0.4,1.6,0.6,2.7,0.6c1.1,0,2-0.2,2.6-0.6c0.7-0.4,1.2-0.9,1.6-1.6c0.4-0.6,0.6-1.4,0.7-2.1C206.1,30.9,206.2,30.1,206.2,29.4z
	 M123,71.9c0,0.3,0.1,0.5,0.4,0.8c0.3,0.2,0.5,0.4,0.8,0.4h1.2v4.8H121c-0.9,0-1.7-0.2-2.4-0.7c-0.7-0.5-1-1.1-1-1.9v-1.5h-0.1
	c-0.2,0.4-0.5,0.7-0.8,1.2c-0.3,0.4-0.7,0.8-1.2,1.2c-0.5,0.4-1,0.7-1.7,1c-0.7,0.3-1.5,0.4-2.4,0.4c-1.7,0-3.1-0.3-4.3-1
	c-1.2-0.7-2.2-1.5-2.9-2.6c-0.8-1.1-1.3-2.4-1.7-3.8c-0.4-1.4-0.5-2.9-0.5-4.4c0-1.1,0.2-2.3,0.5-3.6c0.3-1.3,0.8-2.5,1.5-3.5
	c0.7-1.1,1.6-2,2.8-2.7c1.2-0.7,2.6-1.1,4.3-1.1c1.4,0,2.7,0.3,3.7,0.8c1,0.5,1.8,1.3,2.4,2.4h0.1v-7.1c0-0.6,0.1-1.2,0.3-1.7
	c0.2-0.5,0.4-0.9,0.7-1.3c0.3-0.3,0.7-0.6,1.1-0.8c0.4-0.2,0.8-0.3,1.2-0.3h4.8V52h-1.3c-0.3,0-0.6,0.1-0.8,0.4
	c-0.2,0.2-0.4,0.5-0.4,0.8V71.9z M107.9,65.8c0,1.4,0.1,2.5,0.4,3.4c0.3,0.9,0.7,1.6,1.1,2.1c0.5,0.5,1,0.9,1.5,1.1
	c0.6,0.2,1.1,0.3,1.7,0.3c0.3,0,0.7-0.1,1.3-0.2c0.5-0.1,1.1-0.4,1.6-0.8c0.5-0.4,1-1.1,1.4-2c0.4-0.9,0.6-2.1,0.6-3.5
	c0-2.2-0.5-3.8-1.4-4.9c-0.9-1-2-1.6-3.4-1.6c-1.7,0-2.9,0.5-3.7,1.6C108.3,62.4,107.9,63.9,107.9,65.8z M147.2,70.7
	c-0.4,1.3-0.9,2.4-1.6,3.3c-0.7,0.9-1.5,1.6-2.3,2.1c-0.9,0.5-1.8,0.9-2.7,1.2c-1,0.2-1.9,0.3-2.8,0.3c-1.5,0-2.9-0.2-4.2-0.6
	c-1.3-0.4-2.4-1-3.4-2c-1-0.9-1.7-2.1-2.3-3.6c-0.6-1.5-0.8-3.4-0.8-5.6c0-0.4,0-1,0.1-1.7c0.1-0.7,0.2-1.5,0.5-2.3
	c0.2-0.8,0.6-1.6,1.1-2.4c0.5-0.8,1.1-1.6,1.8-2.2c0.8-0.7,1.7-1.2,2.8-1.6c1.1-0.4,2.5-0.6,4-0.6c1.1,0,2.2,0.2,3.4,0.5
	c1.2,0.3,2.3,0.9,3.3,1.8c1,0.9,1.8,2.1,2.5,3.6c0.7,1.5,1,3.5,1,6v1h-14.7c0,0.4,0.1,0.9,0.2,1.5c0.1,0.6,0.3,1.2,0.7,1.7
	c0.3,0.6,0.8,1,1.5,1.4c0.7,0.4,1.6,0.6,2.7,0.6c0.8,0,1.5-0.2,2.2-0.6c0.7-0.4,1.2-1,1.4-1.8H147.2z M141.6,64.1
	c-0.1-0.9-0.3-1.6-0.6-2.2c-0.3-0.6-0.6-1-1-1.4c-0.4-0.3-0.8-0.6-1.3-0.7c-0.5-0.1-1-0.2-1.4-0.2c-1.3,0-2.4,0.4-3.1,1.2
	c-0.7,0.8-1.2,1.9-1.3,3.3H141.6z M156.9,70.1c0,0.3,0.1,0.6,0.4,0.8c0.3,0.3,0.5,0.4,0.8,0.4h2.8V77h-5.3c-0.5,0-1-0.1-1.5-0.4
	c-0.5-0.3-1-0.6-1.4-1.1c-0.4-0.5-0.8-1-1-1.6c-0.3-0.6-0.4-1.3-0.4-2V54c0-0.3-0.1-0.5-0.3-0.8c-0.2-0.2-0.5-0.4-0.7-0.4h-1.8V48
	h4.8c0.6,0,1.1,0.1,1.5,0.4c0.5,0.2,0.8,0.6,1.2,0.9s0.5,0.8,0.7,1.2c0.2,0.4,0.2,0.8,0.2,1.2V70.1z M203.1,70.8
	c0,0.4,0.2,0.7,0.5,0.9c0.4,0.3,0.7,0.4,1.1,0.4h2.1V77h-4.4c-0.6,0-1.1-0.1-1.7-0.4c-0.6-0.3-1.1-0.7-1.6-1.1s-0.8-1-1.1-1.6
	c-0.3-0.6-0.4-1.2-0.4-1.7V54.8h-0.1L192,77h-5.9l-5.3-22.2h-0.1v17.3c0,0.6-0.1,1.1-0.4,1.7c-0.3,0.6-0.7,1.1-1.1,1.6
	c-0.5,0.5-1,0.8-1.6,1.1c-0.6,0.3-1.2,0.4-1.7,0.4h-4.4v-4.8h2.1c0.3,0,0.7-0.1,1-0.4c0.4-0.3,0.5-0.6,0.5-0.9V48h8.8l5.3,20h0.1
	l5.2-20h8.8V70.8z M229.9,71c0,0.3,0.1,0.6,0.4,0.8c0.2,0.2,0.5,0.4,0.8,0.4h1.3V77h-4.8c-0.2,0-0.5-0.1-0.9-0.2
	c-0.4-0.1-0.7-0.3-1-0.5c-0.3-0.2-0.6-0.5-0.8-0.9c-0.2-0.4-0.3-0.8-0.3-1.3v-0.8c-0.5,1.3-1.4,2.4-2.6,3.1
	c-1.2,0.8-2.6,1.2-4.1,1.2c-1,0-2-0.2-2.9-0.5c-0.9-0.3-1.7-0.8-2.3-1.4c-0.6-0.6-1.2-1.5-1.5-2.5c-0.4-1-0.5-2.2-0.5-3.6v-8.2
	c0-0.2-0.1-0.5-0.3-0.7c-0.2-0.2-0.4-0.4-0.7-0.4h-1.4v-4.8h4.9c0.5,0.1,1,0.2,1.4,0.4c0.4,0.2,0.7,0.5,1,0.9
	c0.3,0.4,0.5,0.7,0.6,1.1c0.1,0.4,0.2,0.8,0.2,1.2v9.7c0,0.8,0.1,1.5,0.3,2c0.2,0.5,0.5,0.9,0.8,1.2c0.4,0.3,0.7,0.5,1.2,0.6
	c0.4,0.1,0.9,0.2,1.3,0.2c0.5,0,0.9-0.1,1.5-0.2c0.5-0.1,1-0.4,1.4-0.8c0.4-0.4,0.8-0.9,1.1-1.5c0.3-0.6,0.4-1.4,0.4-2.4v-6.4
	c0-0.2-0.1-0.5-0.3-0.7c-0.2-0.3-0.4-0.4-0.7-0.4h-1.4v-4.8h4.8c0.9,0,1.6,0.3,2.3,1c0.7,0.7,1,1.6,1,2.7V71z M236.2,61.6
	c0-0.3-0.1-0.5-0.3-0.8c-0.2-0.3-0.5-0.4-0.7-0.4h-1.3v-4.8h5.3c0.3,0,0.6,0.1,0.9,0.3s0.6,0.4,0.8,0.7c0.2,0.3,0.4,0.6,0.6,0.9
	c0.1,0.3,0.2,0.6,0.2,1V59c0.2-0.3,0.4-0.7,0.7-1.2c0.3-0.5,0.7-0.9,1.3-1.4c0.5-0.4,1.2-0.8,1.9-1.1c0.7-0.3,1.6-0.4,2.6-0.4
	c1.1,0,2,0.2,3,0.5c0.9,0.3,1.7,0.8,2.4,1.4c0.7,0.6,1.2,1.4,1.6,2.2c0.4,0.9,0.6,1.9,0.6,3.1v8.8c0,0.3,0.1,0.5,0.3,0.8
	c0.2,0.3,0.5,0.4,0.7,0.4h1.4V77h-4.6c-0.5,0-0.9-0.1-1.3-0.4c-0.4-0.3-0.8-0.6-1.1-1c-0.3-0.4-0.6-0.8-0.8-1.3
	c-0.2-0.5-0.3-1-0.3-1.4v-9c0-0.4,0-0.8-0.1-1.3c0-0.5-0.2-0.9-0.4-1.4c-0.2-0.4-0.6-0.8-1.1-1.1c-0.5-0.3-1.2-0.4-2.1-0.4
	c-1.3,0-2.3,0.4-3.2,1.3c-0.8,0.8-1.3,2.1-1.3,3.7v8.3c0,0.5-0.1,0.9-0.3,1.4c-0.2,0.5-0.5,0.9-0.8,1.3c-0.3,0.4-0.7,0.7-1.2,1
	c-0.4,0.3-0.9,0.4-1.3,0.4h-4.5v-4.8h1.3c0.3,0,0.5-0.1,0.7-0.4c0.2-0.2,0.3-0.5,0.3-0.8V61.6z M279.9,71.9c0,0.3,0.1,0.5,0.4,0.8
	c0.3,0.2,0.5,0.4,0.8,0.4h1.2v4.8h-4.4c-0.9,0-1.7-0.2-2.4-0.7c-0.7-0.5-1-1.1-1-1.9v-1.5h-0.1c-0.2,0.4-0.5,0.7-0.8,1.2
	c-0.3,0.4-0.7,0.8-1.2,1.2c-0.5,0.4-1,0.7-1.7,1c-0.7,0.3-1.5,0.4-2.4,0.4c-1.7,0-3.1-0.3-4.3-1c-1.2-0.7-2.2-1.5-2.9-2.6
	c-0.8-1.1-1.3-2.4-1.7-3.8c-0.4-1.4-0.5-2.9-0.5-4.4c0-1.1,0.2-2.3,0.5-3.6c0.3-1.3,0.8-2.5,1.5-3.5c0.7-1.1,1.6-2,2.8-2.7
	c1.2-0.7,2.6-1.1,4.3-1.1c1.4,0,2.7,0.3,3.7,0.8c1,0.5,1.8,1.3,2.4,2.4h0.1v-7.1c0-0.6,0.1-1.2,0.3-1.7c0.2-0.5,0.4-0.9,0.7-1.3
	c0.3-0.3,0.7-0.6,1-0.8c0.4-0.2,0.8-0.3,1.2-0.3h4.8V52H281c-0.3,0-0.6,0.1-0.8,0.4c-0.2,0.2-0.4,0.5-0.4,0.8V71.9z M264.8,65.8
	c0,1.4,0.1,2.5,0.4,3.4c0.3,0.9,0.7,1.6,1.1,2.1c0.5,0.5,1,0.9,1.5,1.1c0.6,0.2,1.1,0.3,1.7,0.3c0.3,0,0.7-0.1,1.3-0.2
	c0.5-0.1,1.1-0.4,1.6-0.8c0.5-0.4,1-1.1,1.4-2c0.4-0.9,0.6-2.1,0.6-3.5c0-2.2-0.5-3.8-1.4-4.9c-0.9-1-2-1.6-3.4-1.6
	c-1.7,0-2.9,0.5-3.7,1.6C265.1,62.4,264.8,63.9,264.8,65.8z M305.8,66.2c0,1.9-0.3,3.6-0.9,5.1s-1.4,2.6-2.4,3.5
	c-1,0.9-2.2,1.6-3.5,2.1c-1.3,0.4-2.7,0.7-4.2,0.7c-1.5,0-2.8-0.2-4.2-0.7s-2.5-1.1-3.5-2.1c-1-0.9-1.8-2.1-2.4-3.5
	s-0.9-3.1-0.9-5.1s0.3-3.6,0.9-5s1.4-2.6,2.4-3.5c1-0.9,2.2-1.6,3.5-2.1c1.3-0.5,2.7-0.7,4.2-0.7c1.5,0,2.8,0.2,4.2,0.7
	c1.3,0.5,2.5,1.2,3.5,2.1c1,0.9,1.8,2.1,2.4,3.5S305.8,64.3,305.8,66.2z M300,66.2c0-0.7-0.1-1.4-0.2-2.2c-0.1-0.8-0.4-1.5-0.7-2.1
	c-0.4-0.6-0.9-1.2-1.6-1.6c-0.7-0.4-1.6-0.6-2.6-0.6c-1.1,0-2,0.2-2.7,0.6c-0.7,0.4-1.2,1-1.6,1.6c-0.4,0.6-0.6,1.4-0.7,2.1
	c-0.1,0.8-0.2,1.5-0.2,2.2c0,0.7,0.1,1.4,0.2,2.2c0.1,0.8,0.4,1.5,0.7,2.1c0.4,0.6,0.9,1.2,1.6,1.6c0.7,0.4,1.6,0.6,2.7,0.6
	c1.1,0,2-0.2,2.6-0.6c0.7-0.4,1.2-0.9,1.6-1.6c0.4-0.6,0.6-1.4,0.7-2.1C299.9,67.7,300,66.9,300,66.2z M110.1,101.3v-1.4
	c0-0.3-0.2-0.6-0.7-0.8c-0.4-0.2-1-0.3-1.7-0.3c-0.3,0-0.6,0.1-1,0.2c-0.4,0.1-0.7,0.3-1,0.7c-0.3,0.3-0.6,0.8-0.8,1.3
	c-0.2,0.6-0.3,1.3-0.3,2.2c0,0.6,0.1,1.1,0.2,1.6c0.1,0.5,0.3,1,0.5,1.4c0.2,0.4,0.6,0.7,0.9,0.9s0.9,0.3,1.4,0.3
	c0.3,0,0.5,0,0.8-0.1c0.3,0,0.5-0.1,0.8-0.2c0.2-0.1,0.4-0.2,0.6-0.4c0.1-0.2,0.2-0.4,0.2-0.6v-1.2h2.7v1.3c0,0.5-0.1,1-0.4,1.4
	c-0.3,0.4-0.7,0.8-1.1,1.1c-0.5,0.3-1,0.5-1.6,0.7c-0.6,0.1-1.2,0.2-1.9,0.2c-0.8,0-1.6-0.1-2.3-0.4c-0.7-0.3-1.3-0.7-1.8-1.2
	c-0.5-0.5-0.9-1.2-1.2-2c-0.3-0.8-0.4-1.8-0.4-2.8c0-1.1,0.1-2,0.4-2.8c0.3-0.8,0.7-1.5,1.2-2c0.5-0.5,1.1-1,1.8-1.2
	c0.7-0.3,1.4-0.4,2.2-0.4c0.8,0,1.5,0.1,2.1,0.3c0.6,0.2,1.2,0.4,1.6,0.8c0.4,0.3,0.8,0.7,1.1,1.1c0.3,0.4,0.4,0.8,0.4,1.2v1.4
	H110.1z M122.9,104.7c0,0.8-0.1,1.5-0.4,2.2c-0.3,0.6-0.6,1.1-1,1.5c-0.4,0.4-0.9,0.7-1.5,0.9c-0.6,0.2-1.2,0.3-1.8,0.3
	s-1.2-0.1-1.8-0.3c-0.6-0.2-1.1-0.5-1.5-0.9c-0.4-0.4-0.8-0.9-1-1.5c-0.3-0.6-0.4-1.3-0.4-2.2s0.1-1.5,0.4-2.1
	c0.3-0.6,0.6-1.1,1-1.5c0.4-0.4,0.9-0.7,1.5-0.9c0.6-0.2,1.2-0.3,1.8-0.3s1.2,0.1,1.8,0.3c0.6,0.2,1.1,0.5,1.5,0.9
	c0.4,0.4,0.8,0.9,1,1.5C122.8,103.1,122.9,103.8,122.9,104.7z M120.4,104.7c0-0.3,0-0.6-0.1-0.9c-0.1-0.3-0.2-0.6-0.3-0.9
	c-0.2-0.3-0.4-0.5-0.7-0.7s-0.7-0.3-1.1-0.3c-0.5,0-0.9,0.1-1.1,0.3s-0.5,0.4-0.7,0.7c-0.2,0.3-0.3,0.6-0.3,0.9
	c-0.1,0.3-0.1,0.6-0.1,0.9c0,0.3,0,0.6,0.1,0.9c0.1,0.3,0.2,0.6,0.3,0.9c0.2,0.3,0.4,0.5,0.7,0.7c0.3,0.2,0.7,0.3,1.1,0.3
	c0.5,0,0.8-0.1,1.1-0.3c0.3-0.2,0.5-0.4,0.7-0.7c0.2-0.3,0.3-0.6,0.3-0.9C120.4,105.3,120.4,105,120.4,104.7z M127.1,106.3
	c0,0.1,0.1,0.2,0.2,0.4c0.1,0.1,0.2,0.2,0.4,0.2h1.2v2.4h-2.3c-0.2,0-0.4-0.1-0.7-0.2c-0.2-0.1-0.4-0.3-0.6-0.5
	c-0.2-0.2-0.3-0.4-0.4-0.7c-0.1-0.3-0.2-0.5-0.2-0.8v-7.7c0-0.1,0-0.2-0.1-0.3c-0.1-0.1-0.2-0.2-0.3-0.2h-0.8v-2.1h2.1
	c0.2,0,0.5,0.1,0.7,0.2c0.2,0.1,0.4,0.2,0.5,0.4c0.1,0.2,0.2,0.3,0.3,0.5c0.1,0.2,0.1,0.4,0.1,0.5V106.3z M138.1,106.6
	c-0.2,0.6-0.4,1-0.7,1.4s-0.6,0.7-1,0.9c-0.4,0.2-0.8,0.4-1.2,0.5c-0.4,0.1-0.8,0.1-1.2,0.1c-0.6,0-1.2-0.1-1.8-0.3
	c-0.6-0.2-1-0.4-1.5-0.8c-0.4-0.4-0.7-0.9-1-1.6c-0.2-0.6-0.4-1.4-0.4-2.4c0-0.2,0-0.4,0-0.7s0.1-0.6,0.2-1c0.1-0.3,0.3-0.7,0.4-1
	c0.2-0.4,0.5-0.7,0.8-0.9c0.3-0.3,0.7-0.5,1.2-0.7c0.5-0.2,1-0.3,1.7-0.3c0.4,0,0.9,0.1,1.4,0.2c0.5,0.1,1,0.4,1.4,0.8
	c0.4,0.4,0.8,0.9,1.1,1.5c0.3,0.7,0.4,1.5,0.4,2.6v0.4h-6.3c0,0.2,0,0.4,0.1,0.6c0,0.3,0.1,0.5,0.3,0.7c0.1,0.2,0.4,0.4,0.6,0.6
	c0.3,0.2,0.7,0.3,1.1,0.3c0.3,0,0.7-0.1,1-0.3c0.3-0.2,0.5-0.4,0.6-0.8H138.1z M135.7,103.7c0-0.4-0.1-0.7-0.2-0.9
	c-0.1-0.2-0.3-0.4-0.4-0.6c-0.2-0.1-0.4-0.3-0.6-0.3c-0.2-0.1-0.4-0.1-0.6-0.1c-0.6,0-1,0.2-1.3,0.5c-0.3,0.3-0.5,0.8-0.6,1.4H135.7
	z M148.2,102.1c-0.1,0-0.2,0-0.3,0.1c-0.1,0.1-0.2,0.2-0.2,0.3v6.2c0,0.3,0,0.6,0,0.9c0,0.3-0.1,0.6-0.2,0.9s-0.2,0.6-0.4,0.9
	s-0.5,0.5-0.8,0.8c-0.3,0.2-0.8,0.4-1.3,0.5c-0.5,0.1-1.2,0.2-1.9,0.2c-0.5,0-0.9-0.1-1.4-0.2c-0.5-0.1-0.9-0.3-1.3-0.5
	c-0.4-0.2-0.7-0.5-0.9-0.9c-0.2-0.4-0.4-0.8-0.4-1.3h2.6c0,0.1,0.1,0.2,0.1,0.3c0.1,0.1,0.1,0.2,0.3,0.3c0.1,0.1,0.3,0.2,0.5,0.2
	c0.2,0.1,0.5,0.1,0.8,0.1c0.7,0,1.1-0.2,1.5-0.5c0.3-0.3,0.5-0.9,0.5-1.6V108l0,0c-0.1,0.2-0.2,0.3-0.4,0.5
	c-0.1,0.2-0.3,0.3-0.5,0.4s-0.4,0.2-0.7,0.3c-0.3,0.1-0.6,0.1-0.9,0.1c-0.6,0-1.1-0.1-1.6-0.3c-0.5-0.2-0.9-0.5-1.3-0.9
	c-0.4-0.4-0.6-0.9-0.8-1.5c-0.2-0.6-0.3-1.3-0.3-2.1c0-0.8,0.1-1.5,0.3-2.1c0.2-0.6,0.5-1.1,0.8-1.5c0.4-0.4,0.8-0.7,1.2-0.9
	c0.5-0.2,0.9-0.3,1.5-0.3c0.4,0,0.8,0.1,1.1,0.2c0.3,0.1,0.6,0.3,0.8,0.5c0.2,0.2,0.4,0.4,0.5,0.6c0.1,0.2,0.2,0.5,0.2,0.7v-0.5
	c0-0.2,0-0.4,0.1-0.5c0.1-0.2,0.2-0.3,0.4-0.4c0.1-0.1,0.3-0.2,0.5-0.2c0.2-0.1,0.4-0.1,0.5-0.1h1.8v2.1H148.2z M141.4,104.7
	c0,0.3,0,0.6,0.1,0.9c0.1,0.3,0.2,0.6,0.3,0.8c0.1,0.2,0.3,0.4,0.6,0.6c0.2,0.2,0.5,0.2,0.9,0.2c0.4,0,0.8-0.1,1-0.2
	c0.3-0.2,0.5-0.4,0.6-0.6c0.2-0.3,0.3-0.5,0.3-0.9c0.1-0.3,0.1-0.6,0.1-0.9c0-0.4,0-0.7-0.1-1s-0.2-0.6-0.4-0.9
	c-0.2-0.2-0.4-0.4-0.6-0.6c-0.3-0.1-0.6-0.2-0.9-0.2c-0.2,0-0.5,0-0.7,0.1c-0.2,0.1-0.4,0.2-0.6,0.5c-0.2,0.2-0.3,0.5-0.4,0.9
	C141.4,103.7,141.4,104.2,141.4,104.7z M150.4,102.6c0-0.1,0-0.2-0.1-0.3s-0.2-0.1-0.3-0.1h-0.6v-2.1h2c0.3,0,0.5,0,0.7,0.1
	c0.2,0.1,0.3,0.2,0.5,0.3c0.1,0.1,0.2,0.3,0.3,0.5c0.1,0.2,0.1,0.4,0.1,0.5v4.9c0,0.1,0,0.2,0.1,0.3s0.2,0.1,0.3,0.1h0.6v2.4h-2
	c-0.2,0-0.4-0.1-0.5-0.2c-0.2-0.1-0.3-0.3-0.5-0.4c-0.1-0.2-0.3-0.4-0.3-0.6c-0.1-0.2-0.1-0.4-0.1-0.6V102.6z M149.6,97.5
	c0-0.4,0.1-0.8,0.4-1.1s0.6-0.4,1-0.4c0.4,0,0.8,0.1,1.1,0.4s0.4,0.6,0.4,1.1c0,0.4-0.1,0.7-0.4,1s-0.6,0.4-1.1,0.4
	c-0.4,0-0.7-0.1-1-0.4S149.6,97.9,149.6,97.5z M163.8,104.7c0,0.8-0.1,1.5-0.4,2.2c-0.3,0.6-0.6,1.1-1,1.5c-0.4,0.4-0.9,0.7-1.5,0.9
	c-0.6,0.2-1.2,0.3-1.8,0.3c-0.6,0-1.2-0.1-1.8-0.3c-0.6-0.2-1.1-0.5-1.5-0.9c-0.4-0.4-0.8-0.9-1-1.5c-0.3-0.6-0.4-1.3-0.4-2.2
	s0.1-1.5,0.4-2.1c0.3-0.6,0.6-1.1,1-1.5c0.4-0.4,0.9-0.7,1.5-0.9c0.6-0.2,1.2-0.3,1.8-0.3c0.6,0,1.2,0.1,1.8,0.3
	c0.6,0.2,1.1,0.5,1.5,0.9c0.4,0.4,0.8,0.9,1,1.5C163.7,103.1,163.8,103.8,163.8,104.7z M161.4,104.7c0-0.3,0-0.6-0.1-0.9
	c-0.1-0.3-0.2-0.6-0.3-0.9c-0.2-0.3-0.4-0.5-0.7-0.7c-0.3-0.2-0.7-0.3-1.1-0.3c-0.5,0-0.9,0.1-1.1,0.3s-0.5,0.4-0.7,0.7
	c-0.2,0.3-0.3,0.6-0.3,0.9c-0.1,0.3-0.1,0.6-0.1,0.9c0,0.3,0,0.6,0.1,0.9c0.1,0.3,0.2,0.6,0.3,0.9c0.2,0.3,0.4,0.5,0.7,0.7
	c0.3,0.2,0.7,0.3,1.1,0.3c0.5,0,0.8-0.1,1.1-0.3c0.3-0.2,0.5-0.4,0.7-0.7c0.2-0.3,0.3-0.6,0.3-0.9
	C161.3,105.3,161.4,105,161.4,104.7z M170.4,99.8c0-0.2-0.1-0.4-0.2-0.5c-0.1-0.2-0.3-0.3-0.5-0.3h-0.8v-2.2h6.9
	c0.6,0,1.1,0.1,1.6,0.3c0.5,0.2,0.9,0.4,1.2,0.8c0.3,0.3,0.6,0.8,0.8,1.3c0.2,0.5,0.3,1,0.3,1.6c0,0.3,0,0.6-0.1,1.1
	c-0.1,0.4-0.3,0.9-0.6,1.3c-0.3,0.4-0.7,0.8-1.2,1.1c-0.5,0.3-1.2,0.5-2,0.5H173v2c0,0.3-0.1,0.6-0.2,0.9c-0.1,0.3-0.3,0.6-0.5,0.8
	c-0.2,0.2-0.5,0.4-0.8,0.6c-0.3,0.1-0.6,0.2-0.8,0.2h-1.8v-2.1h0.8c0.1,0,0.3-0.1,0.5-0.3c0.2-0.2,0.2-0.3,0.2-0.5V99.8z
	 M175.1,102.6c0.5,0,0.9-0.1,1.1-0.2c0.3-0.1,0.4-0.3,0.6-0.5c0.1-0.2,0.2-0.4,0.2-0.6c0-0.2,0-0.4,0-0.5c0-0.6-0.2-1-0.5-1.3
	c-0.4-0.3-0.9-0.4-1.7-0.4H173v3.6H175.1z M188.7,106.6c-0.2,0.6-0.4,1-0.7,1.4s-0.6,0.7-1,0.9s-0.8,0.4-1.2,0.5
	c-0.4,0.1-0.8,0.1-1.2,0.1c-0.6,0-1.2-0.1-1.8-0.3c-0.6-0.2-1-0.4-1.5-0.8c-0.4-0.4-0.7-0.9-1-1.6c-0.2-0.6-0.4-1.4-0.4-2.4
	c0-0.2,0-0.4,0-0.7c0-0.3,0.1-0.6,0.2-1c0.1-0.3,0.3-0.7,0.4-1c0.2-0.4,0.5-0.7,0.8-0.9c0.3-0.3,0.7-0.5,1.2-0.7
	c0.5-0.2,1.1-0.3,1.7-0.3c0.4,0,0.9,0.1,1.4,0.2c0.5,0.1,1,0.4,1.4,0.8c0.4,0.4,0.8,0.9,1.1,1.5c0.3,0.7,0.4,1.5,0.4,2.6v0.4h-6.3
	c0,0.2,0,0.4,0.1,0.6c0,0.3,0.1,0.5,0.3,0.7c0.1,0.2,0.4,0.4,0.6,0.6c0.3,0.2,0.7,0.3,1.1,0.3c0.3,0,0.7-0.1,1-0.3
	c0.3-0.2,0.5-0.4,0.6-0.8H188.7z M186.3,103.7c0-0.4-0.1-0.7-0.2-0.9c-0.1-0.2-0.3-0.4-0.4-0.6c-0.2-0.1-0.4-0.3-0.6-0.3
	c-0.2-0.1-0.4-0.1-0.6-0.1c-0.6,0-1,0.2-1.3,0.5c-0.3,0.3-0.5,0.8-0.6,1.4H186.3z M190.5,102.6c0-0.1,0-0.2-0.1-0.3
	c-0.1-0.1-0.2-0.1-0.3-0.1h-0.6v-2.1h1.9c0.2,0,0.3,0,0.5,0.1c0.2,0.1,0.3,0.2,0.5,0.3c0.1,0.1,0.3,0.3,0.4,0.4
	c0.1,0.2,0.1,0.3,0.1,0.5v0.3h0c0.1-0.2,0.3-0.5,0.4-0.7c0.1-0.2,0.3-0.4,0.5-0.6c0.2-0.2,0.4-0.3,0.7-0.4c0.3-0.1,0.6-0.2,0.9-0.2
	c0.1,0,0.2,0,0.2,0c0.1,0,0.2,0,0.2,0v2.5c-0.1,0-0.2,0-0.3,0c-0.1,0-0.2,0-0.4,0c-0.5,0-0.9,0.1-1.1,0.2c-0.3,0.1-0.5,0.3-0.7,0.5
	c-0.2,0.2-0.3,0.4-0.3,0.7c-0.1,0.3-0.1,0.5-0.1,0.8v4.8h-2.4V102.6z M205.6,106.7c0,0.1,0.1,0.2,0.2,0.3c0.1,0.1,0.2,0.2,0.3,0.2
	h0.5v2.1h-2c-0.1,0-0.2,0-0.4-0.1c-0.1,0-0.3-0.1-0.4-0.2c-0.1-0.1-0.3-0.2-0.4-0.4c-0.1-0.2-0.1-0.3-0.1-0.6v-0.4
	c-0.2,0.6-0.6,1-1.1,1.3c-0.5,0.3-1.1,0.5-1.7,0.5c-0.4,0-0.9-0.1-1.3-0.2c-0.4-0.1-0.7-0.3-1-0.6c-0.3-0.3-0.5-0.6-0.6-1.1
	c-0.2-0.4-0.2-0.9-0.2-1.5v-3.5c0-0.1,0-0.2-0.1-0.3c-0.1-0.1-0.2-0.2-0.3-0.2h-0.6v-2.1h2.1c0.2,0,0.4,0.1,0.6,0.2s0.3,0.2,0.4,0.4
	s0.2,0.3,0.3,0.5c0.1,0.2,0.1,0.3,0.1,0.5v4.1c0,0.4,0,0.6,0.1,0.9c0.1,0.2,0.2,0.4,0.4,0.5c0.1,0.1,0.3,0.2,0.5,0.3
	c0.2,0,0.4,0.1,0.6,0.1c0.2,0,0.4,0,0.6-0.1c0.2-0.1,0.4-0.2,0.6-0.3c0.2-0.2,0.3-0.4,0.5-0.6c0.1-0.3,0.2-0.6,0.2-1v-2.7
	c0-0.1,0-0.2-0.1-0.3c-0.1-0.1-0.2-0.2-0.3-0.2h-0.6v-2.1h2.1c0.4,0,0.7,0.1,1,0.4c0.3,0.3,0.4,0.7,0.4,1.2V106.7z M216.9,106.7
	c0,0.1,0,0.2,0.1,0.3c0.1,0.1,0.2,0.1,0.3,0.1h0.6v2.1h-2.1c-0.1,0-0.2,0-0.4-0.1c-0.1-0.1-0.3-0.1-0.4-0.2
	c-0.1-0.1-0.2-0.2-0.3-0.4c-0.1-0.1-0.1-0.3-0.1-0.5v-0.2c-0.3,0.5-0.7,0.9-1.2,1.2c-0.5,0.3-1.1,0.4-1.7,0.4
	c-0.6,0-1.2-0.1-1.7-0.3c-0.5-0.2-1-0.5-1.4-0.9c-0.4-0.4-0.7-0.9-0.9-1.5c-0.2-0.6-0.3-1.3-0.3-2.2s0.1-1.5,0.4-2.1
	c0.3-0.6,0.6-1.1,1-1.5c0.4-0.4,0.9-0.7,1.5-0.9c0.6-0.2,1.2-0.3,1.8-0.3c0.2,0,0.5,0,0.7,0.1c0.3,0.1,0.5,0.1,0.7,0.2
	c0.2,0.1,0.4,0.2,0.6,0.4c0.2,0.1,0.4,0.3,0.5,0.5v-0.8h2.2V106.7z M214.3,104.7c0-0.3,0-0.6-0.1-0.9c-0.1-0.3-0.2-0.6-0.3-0.9
	c-0.2-0.3-0.4-0.5-0.7-0.7c-0.3-0.2-0.7-0.3-1.1-0.3c-0.5,0-0.9,0.1-1.1,0.3s-0.5,0.4-0.7,0.7c-0.2,0.3-0.3,0.6-0.3,0.9
	c-0.1,0.3-0.1,0.6-0.1,0.9c0,0.3,0,0.6,0.1,0.9c0.1,0.3,0.2,0.6,0.3,0.9c0.2,0.3,0.4,0.5,0.7,0.7c0.3,0.2,0.7,0.3,1.1,0.3
	c0.5,0,0.8-0.1,1.1-0.3c0.3-0.2,0.5-0.4,0.7-0.7c0.2-0.3,0.3-0.6,0.3-0.9C214.3,105.3,214.3,105,214.3,104.7z M219.8,102.7
	c0-0.1,0-0.2-0.1-0.3c-0.1-0.1-0.2-0.2-0.3-0.2h-0.6v-2.1h2.3c0.1,0,0.3,0,0.4,0.1c0.1,0.1,0.2,0.2,0.3,0.3s0.2,0.2,0.3,0.4
	c0.1,0.1,0.1,0.3,0.1,0.4v0.3c0.1-0.1,0.2-0.3,0.3-0.5c0.1-0.2,0.3-0.4,0.5-0.6c0.2-0.2,0.5-0.3,0.8-0.5c0.3-0.1,0.7-0.2,1.1-0.2
	c0.4,0,0.9,0.1,1.3,0.2c0.4,0.1,0.7,0.3,1,0.6c0.3,0.3,0.5,0.6,0.7,1c0.2,0.4,0.2,0.8,0.2,1.3v3.8c0,0.1,0,0.2,0.1,0.3
	c0.1,0.1,0.2,0.2,0.3,0.2h0.6v2.1h-2c-0.2,0-0.4-0.1-0.6-0.2c-0.2-0.1-0.3-0.2-0.5-0.4c-0.1-0.2-0.2-0.4-0.3-0.6
	c-0.1-0.2-0.1-0.4-0.1-0.6v-3.8c0-0.2,0-0.4,0-0.6c0-0.2-0.1-0.4-0.2-0.6c-0.1-0.2-0.3-0.3-0.5-0.5c-0.2-0.1-0.5-0.2-0.9-0.2
	c-0.5,0-1,0.2-1.4,0.5c-0.4,0.4-0.5,0.9-0.5,1.6v3.5c0,0.2,0,0.4-0.1,0.6c-0.1,0.2-0.2,0.4-0.3,0.6c-0.1,0.2-0.3,0.3-0.5,0.4
	c-0.2,0.1-0.4,0.2-0.6,0.2h-1.9v-2.1h0.6c0.1,0,0.2-0.1,0.3-0.2c0.1-0.1,0.1-0.2,0.1-0.3V102.7z M239.2,104.7c0,0.8-0.1,1.5-0.4,2.2
	c-0.3,0.6-0.6,1.1-1,1.5c-0.4,0.4-0.9,0.7-1.5,0.9c-0.6,0.2-1.2,0.3-1.8,0.3c-0.6,0-1.2-0.1-1.8-0.3c-0.6-0.2-1.1-0.5-1.5-0.9
	c-0.4-0.4-0.8-0.9-1-1.5c-0.3-0.6-0.4-1.3-0.4-2.2s0.1-1.5,0.4-2.1c0.3-0.6,0.6-1.1,1-1.5c0.4-0.4,0.9-0.7,1.5-0.9
	c0.6-0.2,1.2-0.3,1.8-0.3c0.6,0,1.2,0.1,1.8,0.3c0.6,0.2,1.1,0.5,1.5,0.9c0.4,0.4,0.8,0.9,1,1.5
	C239.1,103.1,239.2,103.8,239.2,104.7z M236.7,104.7c0-0.3,0-0.6-0.1-0.9c-0.1-0.3-0.2-0.6-0.3-0.9c-0.2-0.3-0.4-0.5-0.7-0.7
	c-0.3-0.2-0.7-0.3-1.1-0.3c-0.5,0-0.9,0.1-1.1,0.3s-0.5,0.4-0.7,0.7c-0.2,0.3-0.3,0.6-0.3,0.9c-0.1,0.3-0.1,0.6-0.1,0.9
	c0,0.3,0,0.6,0.1,0.9c0.1,0.3,0.2,0.6,0.3,0.9c0.2,0.3,0.4,0.5,0.7,0.7c0.3,0.2,0.7,0.3,1.1,0.3c0.5,0,0.8-0.1,1.1-0.3
	c0.3-0.2,0.5-0.4,0.7-0.7c0.2-0.3,0.3-0.6,0.3-0.9C236.7,105.3,236.7,105,236.7,104.7z M244.9,105.5H240v-2.2h4.8V105.5z
	 M257.2,106.6c0.1,0.2,0.2,0.3,0.4,0.4c0.2,0.1,0.4,0.2,0.5,0.2h0.9v2.1h-2.1c-0.5,0-0.9-0.2-1.3-0.5c-0.4-0.3-0.6-0.7-0.7-1.1
	l-0.3-1H250l-0.3,1c-0.1,0.4-0.4,0.8-0.7,1.1c-0.4,0.3-0.8,0.5-1.3,0.5h-2.1v-2.1h0.9c0.2,0,0.3-0.1,0.5-0.2
	c0.2-0.1,0.3-0.3,0.3-0.4l3.3-9.7h3.1L257.2,106.6z M250.7,104.6h3.2l-1.5-4.9h0L250.7,104.6z M263.1,106.3c0,0.1,0.1,0.2,0.2,0.4
	c0.1,0.1,0.2,0.2,0.4,0.2h1.2v2.4h-2.3c-0.2,0-0.4-0.1-0.7-0.2c-0.2-0.1-0.4-0.3-0.6-0.5c-0.2-0.2-0.3-0.4-0.4-0.7
	c-0.1-0.3-0.2-0.5-0.2-0.8v-7.7c0-0.1,0-0.2-0.1-0.3c-0.1-0.1-0.2-0.2-0.3-0.2h-0.8v-2.1h2.1c0.2,0,0.5,0.1,0.7,0.2
	c0.2,0.1,0.4,0.2,0.5,0.4c0.1,0.2,0.2,0.3,0.3,0.5c0.1,0.2,0.1,0.4,0.1,0.5V106.3z M274,106.6c-0.2,0.6-0.4,1-0.7,1.4
	s-0.6,0.7-1,0.9c-0.4,0.2-0.8,0.4-1.2,0.5c-0.4,0.1-0.8,0.1-1.2,0.1c-0.6,0-1.2-0.1-1.8-0.3c-0.6-0.2-1-0.4-1.5-0.8
	c-0.4-0.4-0.7-0.9-1-1.6c-0.2-0.6-0.4-1.4-0.4-2.4c0-0.2,0-0.4,0-0.7c0-0.3,0.1-0.6,0.2-1c0.1-0.3,0.3-0.7,0.4-1
	c0.2-0.4,0.5-0.7,0.8-0.9c0.3-0.3,0.7-0.5,1.2-0.7c0.5-0.2,1-0.3,1.7-0.3c0.4,0,0.9,0.1,1.4,0.2c0.5,0.1,1,0.4,1.4,0.8
	c0.4,0.4,0.8,0.9,1.1,1.5c0.3,0.7,0.4,1.5,0.4,2.6v0.4h-6.3c0,0.2,0,0.4,0.1,0.6c0,0.3,0.1,0.5,0.3,0.7c0.1,0.2,0.4,0.4,0.6,0.6
	c0.3,0.2,0.7,0.3,1.1,0.3c0.3,0,0.7-0.1,1-0.3c0.3-0.2,0.5-0.4,0.6-0.8H274z M271.6,103.7c0-0.4-0.1-0.7-0.2-0.9
	c-0.1-0.2-0.3-0.4-0.4-0.6c-0.2-0.1-0.4-0.3-0.6-0.3c-0.2-0.1-0.4-0.1-0.6-0.1c-0.6,0-1,0.2-1.3,0.5c-0.3,0.3-0.5,0.8-0.6,1.4H271.6
	z M275.9,102.6c0-0.1-0.1-0.2-0.2-0.3c-0.1-0.1-0.2-0.2-0.3-0.2h-0.6v-2.1h2.1c0.1,0,0.3,0,0.4,0.1c0.1,0.1,0.3,0.2,0.4,0.3
	c0.1,0.1,0.2,0.2,0.3,0.4c0.1,0.1,0.1,0.3,0.1,0.4v0.4c0.1-0.1,0.2-0.3,0.3-0.5c0.1-0.2,0.3-0.4,0.5-0.6c0.2-0.2,0.5-0.3,0.8-0.5
	c0.3-0.1,0.7-0.2,1.1-0.2c0.3,0,0.6,0,0.9,0.1c0.2,0.1,0.5,0.2,0.7,0.3c0.2,0.1,0.4,0.3,0.5,0.5c0.2,0.2,0.3,0.4,0.5,0.6
	c0.1-0.1,0.2-0.3,0.3-0.4c0.1-0.2,0.3-0.3,0.5-0.5s0.4-0.3,0.7-0.4c0.3-0.1,0.6-0.2,1-0.2c0.4,0,0.9,0.1,1.3,0.2
	c0.4,0.1,0.7,0.3,1,0.6c0.3,0.3,0.5,0.6,0.7,1c0.2,0.4,0.3,0.8,0.3,1.3v3.8c0,0.1,0,0.2,0.1,0.3c0.1,0.1,0.2,0.1,0.3,0.1h0.6v2.1
	h-1.8c-0.2,0-0.4-0.1-0.6-0.2c-0.2-0.1-0.4-0.3-0.5-0.4c-0.1-0.2-0.3-0.4-0.4-0.6c-0.1-0.2-0.1-0.4-0.1-0.6v-3.8
	c0-0.7-0.1-1.2-0.4-1.4c-0.3-0.3-0.6-0.4-0.9-0.4c-0.6,0-1,0.2-1.3,0.5c-0.2,0.4-0.4,0.8-0.4,1.3v5.5h-2.4v-5.5c0-0.2,0-0.4,0-0.6
	c0-0.2-0.1-0.4-0.2-0.6c-0.1-0.2-0.2-0.3-0.4-0.5c-0.2-0.1-0.5-0.2-0.8-0.2c-0.3,0-0.5,0-0.7,0.1c-0.2,0.1-0.3,0.2-0.5,0.4
	c-0.1,0.2-0.2,0.4-0.3,0.6c-0.1,0.2-0.1,0.5-0.1,0.7v4c0,0.2-0.1,0.4-0.2,0.6c-0.1,0.2-0.3,0.4-0.4,0.5c-0.2,0.2-0.4,0.3-0.6,0.4
	c-0.2,0.1-0.4,0.1-0.6,0.1h-1.7v-2.1h0.6c0.1,0,0.2,0,0.3-0.1c0.1-0.1,0.2-0.2,0.2-0.3V102.6z M300.3,106.7c0,0.1,0,0.2,0.1,0.3
	s0.2,0.1,0.3,0.1h0.6v2.1h-2.1c-0.1,0-0.2,0-0.4-0.1c-0.1-0.1-0.3-0.1-0.4-0.2c-0.1-0.1-0.2-0.2-0.3-0.4c-0.1-0.1-0.1-0.3-0.1-0.5
	v-0.2c-0.3,0.5-0.7,0.9-1.2,1.2c-0.5,0.3-1.1,0.4-1.7,0.4c-0.6,0-1.2-0.1-1.7-0.3c-0.5-0.2-1-0.5-1.4-0.9c-0.4-0.4-0.7-0.9-0.9-1.5
	c-0.2-0.6-0.3-1.3-0.3-2.2s0.1-1.5,0.4-2.1c0.3-0.6,0.6-1.1,1-1.5c0.4-0.4,0.9-0.7,1.5-0.9c0.6-0.2,1.2-0.3,1.8-0.3
	c0.2,0,0.5,0,0.7,0.1c0.3,0.1,0.5,0.1,0.7,0.2c0.2,0.1,0.4,0.2,0.6,0.4c0.2,0.1,0.4,0.3,0.5,0.5v-0.8h2.2V106.7z M297.7,104.7
	c0-0.3,0-0.6-0.1-0.9c-0.1-0.3-0.2-0.6-0.3-0.9c-0.2-0.3-0.4-0.5-0.7-0.7c-0.3-0.2-0.7-0.3-1.1-0.3c-0.5,0-0.9,0.1-1.1,0.3
	c-0.3,0.2-0.5,0.4-0.7,0.7c-0.2,0.3-0.3,0.6-0.3,0.9c-0.1,0.3-0.1,0.6-0.1,0.9c0,0.3,0,0.6,0.1,0.9c0.1,0.3,0.2,0.6,0.3,0.9
	c0.2,0.3,0.4,0.5,0.7,0.7c0.3,0.2,0.7,0.3,1.1,0.3c0.5,0,0.8-0.1,1.1-0.3c0.3-0.2,0.5-0.4,0.7-0.7c0.2-0.3,0.3-0.6,0.3-0.9
	C297.7,105.3,297.7,105,297.7,104.7z M296,98.8h-1.7l1.6-2.5h2.7L296,98.8z M303.1,102.7c0-0.1,0-0.2-0.1-0.3
	c-0.1-0.1-0.2-0.2-0.3-0.2H302v-2.1h2.3c0.1,0,0.3,0,0.4,0.1c0.1,0.1,0.2,0.2,0.3,0.3c0.1,0.1,0.2,0.2,0.3,0.4
	c0.1,0.1,0.1,0.3,0.1,0.4v0.3c0.1-0.1,0.2-0.3,0.3-0.5c0.1-0.2,0.3-0.4,0.5-0.6c0.2-0.2,0.5-0.3,0.8-0.5c0.3-0.1,0.7-0.2,1.1-0.2
	c0.4,0,0.9,0.1,1.3,0.2c0.4,0.1,0.7,0.3,1,0.6c0.3,0.3,0.5,0.6,0.7,1c0.2,0.4,0.2,0.8,0.2,1.3v3.8c0,0.1,0,0.2,0.1,0.3
	c0.1,0.1,0.2,0.2,0.3,0.2h0.6v2.1h-2c-0.2,0-0.4-0.1-0.6-0.2c-0.2-0.1-0.3-0.2-0.5-0.4c-0.1-0.2-0.2-0.4-0.3-0.6
	c-0.1-0.2-0.1-0.4-0.1-0.6v-3.8c0-0.2,0-0.4,0-0.6c0-0.2-0.1-0.4-0.2-0.6c-0.1-0.2-0.3-0.3-0.5-0.5c-0.2-0.1-0.5-0.2-0.9-0.2
	c-0.5,0-1,0.2-1.4,0.5c-0.4,0.4-0.5,0.9-0.5,1.6v3.5c0,0.2,0,0.4-0.1,0.6c-0.1,0.2-0.2,0.4-0.3,0.6c-0.1,0.2-0.3,0.3-0.5,0.4
	c-0.2,0.1-0.4,0.2-0.6,0.2H302v-2.1h0.6c0.1,0,0.2-0.1,0.3-0.2c0.1-0.1,0.1-0.2,0.1-0.3V102.7z"/>
</svg>
